<?xml version="1.0" standalone="no"?>
<!DOCTYPE svg PUBLIC "-//W3C//DTD SVG 20010904//EN"
 "http://www.w3.org/TR/2001/REC-SVG-20010904/DTD/svg10.dtd">
<svg version="1.0" xmlns="http://www.w3.org/2000/svg"
 width="1280.000000pt" height="706.000000pt" viewBox="0 0 1280.000000 706.000000"
 preserveAspectRatio="xMidYMid meet">
<g transform="translate(0.000000,706.000000) scale(0.100000,-0.100000)"
fill="#000000" stroke="none">
<path d="M6530 7039 c0 -5 5 -7 10 -4 6 3 10 8 10 11 0 2 -4 4 -10 4 -5 0 -10
-5 -10 -11z"/>
<path d="M6601 6972 c6 -17 16 -35 21 -38 15 -9 -1 37 -18 56 -13 13 -13 11
-3 -18z"/>
<path d="M1686 6896 c3 -8 0 -17 -6 -21 -7 -4 -170 -11 -363 -16 -194 -4 -446
-14 -562 -20 -115 -7 -226 -13 -246 -13 -21 -1 -43 -7 -50 -13 -29 -22 -394
-153 -428 -153 -6 0 -16 10 -21 23 -7 17 -9 7 -9 -41 -1 -46 3 -64 14 -68 43
-17 134 -263 142 -383 3 -41 11 -84 18 -95 23 -38 39 -382 32 -705 -6 -244
-11 -321 -33 -459 -26 -167 -36 -197 -61 -188 -19 8 -16 -11 3 -22 15 -8 15
-21 5 -128 -12 -119 -10 -298 2 -311 4 -3 7 -16 7 -29 0 -17 -4 -21 -20 -17
-29 8 -25 -9 10 -42 17 -16 43 -61 59 -104 16 -42 59 -139 95 -215 40 -84 62
-142 56 -146 -9 -6 66 -120 89 -135 6 -3 11 -17 11 -30 0 -12 7 -25 15 -29 8
-3 27 -29 43 -59 15 -29 58 -100 96 -158 38 -57 71 -112 74 -121 2 -10 8 -18
12 -18 4 0 40 -44 81 -97 91 -120 242 -278 323 -339 33 -25 106 -68 161 -94
84 -40 112 -60 163 -114 34 -37 65 -79 68 -94 4 -15 15 -36 25 -47 10 -11 28
-43 40 -70 58 -133 138 -211 244 -238 33 -8 164 -52 290 -97 442 -157 621
-199 870 -207 161 -5 235 2 580 59 115 19 378 16 454 -5 117 -32 176 -65 230
-127 28 -32 76 -74 107 -95 31 -21 59 -46 61 -56 3 -11 11 -19 18 -19 7 0 55
-53 108 -118 116 -144 187 -212 221 -212 13 0 27 -6 30 -12 4 -9 9 -8 18 6 7
10 40 56 73 102 33 45 72 101 87 123 38 56 70 75 114 67 39 -8 104 -68 132
-122 10 -18 29 -47 43 -66 15 -18 75 -123 134 -233 114 -212 211 -368 268
-431 19 -22 46 -58 61 -82 28 -45 96 -86 104 -63 2 6 27 11 58 11 62 0 110 17
138 49 11 11 25 21 33 21 7 0 13 11 13 24 0 13 7 29 15 36 12 10 16 9 21 -6 4
-11 9 -22 11 -26 2 -4 -6 -17 -17 -28 l-21 -21 30 -47 31 -47 0 95 c0 145 37
263 113 362 42 54 39 60 -10 22 -18 -14 -33 -21 -33 -17 0 29 103 153 128 153
6 0 12 5 12 10 0 6 11 10 25 10 14 0 24 5 23 12 -4 15 53 44 105 53 28 6 37 4
37 -6 -1 -16 -85 -82 -105 -82 -15 0 -5 -39 12 -44 5 -2 40 28 77 67 38 39 78
76 90 82 15 9 142 12 481 10 509 -3 586 3 671 53 61 36 80 56 76 81 -2 14 12
39 37 68 23 26 41 51 41 56 0 17 102 83 143 92 23 5 45 14 48 20 11 18 137 44
225 47 48 1 109 -4 145 -13 35 -8 116 -22 179 -31 247 -36 294 -46 358 -76 78
-38 176 -132 204 -198 12 -25 29 -57 39 -70 10 -12 22 -39 25 -60 4 -20 15
-42 25 -49 19 -13 49 -98 49 -139 0 -16 -6 -23 -19 -23 -11 0 -21 -6 -24 -12
-8 -22 13 -48 37 -48 20 0 24 -6 30 -46 8 -64 8 -114 -2 -114 -4 0 -14 6 -21
13 -7 6 -1 -8 14 -32 15 -24 33 -65 41 -92 10 -33 32 -67 69 -108 30 -32 55
-63 55 -69 0 -5 12 -18 27 -27 23 -16 25 -16 20 -1 -9 23 5 20 81 -18 116 -58
173 -59 197 -2 37 88 47 296 20 401 -9 33 -31 93 -50 134 -19 40 -35 84 -35
98 0 13 -4 22 -9 19 -12 -8 -168 262 -204 352 -23 58 -31 98 -35 165 -4 80 -3
90 17 108 22 21 71 110 71 130 0 7 -9 4 -21 -7 -22 -19 -22 -19 -14 6 12 42
52 103 95 144 22 22 40 48 40 58 0 10 5 18 10 18 6 0 10 -5 10 -11 0 -5 5 -7
10 -4 6 3 10 21 10 38 0 28 16 48 122 152 125 123 299 265 324 265 9 0 14 -11
14 -28 0 -22 -10 -36 -45 -61 -25 -18 -45 -37 -45 -42 0 -14 19 -1 79 53 56
50 61 63 31 71 -32 8 -24 24 38 65 150 102 194 118 360 129 60 4 82 9 82 19 0
7 14 29 31 49 l31 35 -36 0 c-45 0 -55 20 -33 64 9 17 19 65 23 106 10 114 16
124 68 118 l43 -5 -15 49 c-17 51 -18 51 -48 2 -17 -28 -44 -10 -44 29 0 40
20 61 50 52 14 -5 20 -2 20 9 0 10 -9 16 -25 16 -28 0 -41 20 -30 48 4 9 8 35
10 57 4 58 44 156 75 185 15 14 32 35 39 48 15 29 48 29 53 0 4 -19 9 -13 31
32 36 73 34 93 -3 42 -26 -37 -60 -56 -60 -34 0 22 64 114 85 122 22 8 25 16
25 58 0 50 16 112 29 112 4 0 12 -5 17 -10 8 -8 15 -6 23 4 9 11 8 14 -6 12
-44 -3 -19 92 69 265 27 53 56 103 66 112 17 15 201 87 222 87 22 0 215 81
240 100 l25 20 -60 -1 c-56 0 -128 -17 -82 -18 12 -1 17 -7 15 -18 -2 -11 -31
-26 -83 -44 -88 -31 -155 -38 -155 -15 0 20 36 62 75 86 20 12 32 26 29 35
-13 34 151 96 251 94 68 -2 97 -13 89 -34 -5 -12 3 -15 37 -15 49 0 119 17
119 28 0 5 -4 12 -9 17 -11 12 9 215 20 215 5 0 6 13 3 30 -5 25 -1 34 25 57
31 27 41 53 21 53 -6 0 -16 -11 -22 -25 -14 -32 -43 -34 -35 -2 17 68 46 157
62 192 22 44 160 195 180 195 7 0 18 -7 25 -15 25 -30 56 -18 91 38 34 52 35
52 109 67 42 8 96 24 120 35 32 14 45 16 48 7 6 -18 24 -14 57 13 33 27 30 31
-10 13 -37 -17 -40 -5 -11 44 24 41 46 115 61 201 6 39 20 49 28 20 3 -10 5 1
6 23 1 26 -5 46 -14 54 -11 9 -15 34 -15 95 0 107 -25 246 -55 314 -14 29 -25
63 -25 76 0 52 -100 93 -258 105 l-102 8 -84 -87 c-87 -89 -127 -136 -236
-281 -80 -106 -208 -240 -279 -293 -74 -55 -191 -107 -239 -107 -22 0 -53 -7
-68 -15 -16 -8 -37 -15 -47 -15 -46 0 -190 -45 -272 -85 -62 -30 -113 -64
-162 -109 -39 -36 -75 -66 -79 -66 -4 0 -16 7 -26 17 -24 21 -36 9 -15 -15 10
-10 17 -24 17 -31 0 -20 -227 -247 -305 -305 -38 -29 -101 -71 -140 -93 -73
-43 -239 -117 -289 -129 -27 -6 -29 -5 -24 20 3 14 1 26 -3 26 -5 0 -98 -37
-206 -82 -214 -88 -247 -95 -328 -64 -72 28 -144 128 -145 201 0 17 -5 36 -10
41 -6 6 -17 80 -25 165 -29 302 -36 360 -55 436 -11 42 -20 88 -20 103 0 29
-30 75 -75 112 -49 42 -217 122 -225 108 -4 -7 -16 -9 -28 -6 -13 4 -22 1 -26
-9 -6 -17 -36 -21 -36 -5 0 6 7 13 15 16 8 4 12 10 9 15 -9 16 -19 10 -33 -21
-7 -17 -36 -48 -65 -69 -46 -35 -78 -66 -159 -157 -20 -23 -34 -57 -51 -126
-13 -52 -26 -100 -30 -107 -4 -7 -3 -18 3 -25 7 -8 9 -31 5 -60 -5 -31 -10
-43 -15 -34 -6 9 -9 4 -9 -14 0 -15 4 -29 9 -33 20 -11 23 -102 12 -269 -14
-204 -19 -236 -37 -242 -52 -16 -50 -15 -31 -25 39 -22 2 -69 -56 -69 -54 0
-143 86 -186 180 -32 69 -33 72 -15 91 18 20 18 21 -5 39 -23 17 -24 20 -18
116 10 149 103 510 137 533 14 9 20 24 20 50 0 24 7 42 20 54 11 9 23 31 27
47 12 63 125 131 299 179 59 17 110 28 114 26 10 -6 93 40 115 65 13 14 16 28
11 55 -7 34 -6 36 13 30 14 -4 21 -2 21 6 0 9 -23 11 -92 6 -98 -6 -301 13
-337 32 -11 6 -29 11 -41 11 -45 0 -138 59 -197 125 -32 36 -73 74 -91 85
l-32 19 -106 -64 c-97 -59 -166 -86 -180 -72 -3 3 -24 -4 -45 -15 -36 -18 -51
-20 -152 -14 -62 3 -126 6 -144 6 -20 0 -35 6 -41 17 -9 14 -13 15 -26 4 -12
-10 -32 -12 -71 -7 -124 14 -134 40 -45 110 33 26 60 53 60 60 0 6 32 40 70
75 72 64 110 121 110 164 0 54 -12 83 -38 95 -15 7 -49 26 -77 42 -65 38 -148
66 -271 90 -156 30 -273 39 -670 50 -231 7 -377 15 -391 22 -15 7 -27 8 -35 1
-8 -6 -49 -7 -114 -1 -136 11 -2136 4 -2839 -10 -308 -6 -744 -12 -970 -14
-386 -3 -410 -2 -407 15 2 11 -4 17 -17 17 -13 0 -19 -5 -15 -14z m10574
-1569 c0 -14 -34 -35 -60 -38 -52 -5 -53 13 -2 34 46 20 62 21 62 4z m-2332
-564 c-3 -19 -74 -50 -86 -39 -4 4 6 19 21 32 33 28 70 32 65 7z m-148 -53 c0
-5 -4 -10 -10 -10 -5 0 -10 5 -10 10 0 6 5 10 10 10 6 0 10 -4 10 -10z m884
-1989 c9 -13 -15 -28 -59 -36 l-40 -7 24 26 c24 25 64 35 75 17z"/>
<path d="M7661 6554 c-8 -19 -8 -24 2 -24 14 0 37 19 37 31 0 20 -29 15 -39
-7z"/>
<path d="M8125 6390 c-3 -5 1 -10 9 -10 9 0 16 5 16 10 0 6 -4 10 -9 10 -6 0
-13 -4 -16 -10z"/>
<path d="M8485 6150 c-3 -5 -2 -10 4 -10 5 0 13 5 16 10 3 6 2 10 -4 10 -5 0
-13 -4 -16 -10z"/>
<path d="M8900 6012 c0 -12 13 -30 32 -44 l33 -23 -30 40 c-16 22 -30 42 -32
44 -2 2 -3 -5 -3 -17z"/>
<path d="M12640 5460 c-8 -5 -10 -10 -5 -10 6 0 17 5 25 10 8 5 11 10 5 10 -5
0 -17 -5 -25 -10z"/>
<path d="M9335 4950 c-10 -11 -15 -20 -11 -20 14 0 46 21 46 30 0 16 -16 11
-35 -10z"/>
<path d="M11974 4685 c4 -16 12 -34 18 -40 7 -7 8 -1 4 20 -4 17 -12 35 -18
40 -7 7 -8 1 -4 -20z"/>
<path d="M12091 4672 c-1 -8 -10 -27 -21 -42 -20 -28 -20 -28 0 -23 32 8 44
30 32 56 -6 12 -11 16 -11 9z"/>
<path d="M11979 4630 c0 -3 -2 -17 -3 -32 -2 -31 9 -35 38 -13 17 13 17 15 3
15 -9 0 -21 8 -26 18 -6 9 -11 15 -12 12z"/>
<path d="M11959 4488 c-22 -32 -22 -32 -2 -15 16 14 30 17 52 12 38 -8 42 11
5 25 -33 13 -29 15 -55 -22z"/>
<path d="M11520 4500 l-25 -8 25 0 c14 0 36 4 50 8 l25 8 -25 0 c-14 0 -36 -4
-50 -8z"/>
<path d="M11197 4111 c-22 -62 -22 -61 8 -61 24 0 25 3 25 55 0 30 -3 55 -8
55 -4 0 -15 -22 -25 -49z"/>
<path d="M11140 3979 l-22 -44 28 25 c16 14 31 26 32 27 2 1 -1 9 -6 19 -8 15
-13 11 -32 -27z"/>
<path d="M10853 3428 c-33 -38 -53 -71 -53 -90 0 -34 16 -18 48 47 17 36 30
65 29 65 -2 0 -13 -10 -24 -22z"/>
<path d="M647 3096 c-5 -13 10 -36 24 -36 9 0 -1 39 -11 45 -4 3 -10 -1 -13
-9z"/>
<path d="M10760 2963 l0 -36 25 23 c35 33 53 15 37 -36 -11 -35 -10 -36 9 -18
22 20 22 20 36 -26 l11 -35 0 30 c1 42 -31 121 -48 117 -7 -2 -26 2 -41 7 -28
10 -29 9 -29 -26z"/>
<path d="M830 2880 c20 -39 73 -110 78 -105 7 7 -43 88 -68 110 l-23 20 13
-25z"/>
<path d="M935 2610 c3 -5 13 -10 21 -10 8 0 12 5 9 10 -3 6 -13 10 -21 10 -8
0 -12 -4 -9 -10z"/>
<path d="M1349 2461 c14 -26 50 -51 73 -51 33 0 19 19 -33 45 -46 24 -49 24
-40 6z"/>
<path d="M9950 2195 c0 -9 5 -15 11 -13 6 2 11 8 11 13 0 5 -5 11 -11 13 -6 2
-11 -4 -11 -13z"/>
<path d="M9845 2120 c3 -5 13 -10 21 -10 8 0 14 5 14 10 0 6 -9 10 -21 10 -11
0 -17 -4 -14 -10z"/>
<path d="M8305 1570 c-3 -5 1 -10 10 -10 9 0 13 5 10 10 -3 6 -8 10 -10 10 -2
0 -7 -4 -10 -10z"/>
<path d="M8419 1548 c5 -15 18 -24 36 -26 22 -3 27 0 21 13 -3 9 -6 21 -6 26
0 5 -13 9 -30 9 -26 0 -28 -2 -21 -22z"/>
<path d="M8530 1506 c0 -7 72 -47 77 -42 3 2 0 14 -7 25 -7 14 -21 21 -40 21
-17 0 -30 -2 -30 -4z"/>
<path d="M8820 1410 c-22 -7 -20 -8 15 -9 22 0 47 4 55 9 11 7 8 9 -15 9 -16
-1 -41 -5 -55 -9z"/>
<path d="M7880 1204 c0 -13 -7 -16 -35 -11 -21 3 -33 2 -30 -4 10 -16 85 -11
85 5 0 8 -4 18 -10 21 -5 3 -10 -1 -10 -11z"/>
<path d="M6317 1036 c-4 -10 -1 -13 8 -9 8 3 12 9 9 14 -7 12 -11 11 -17 -5z"/>
<path d="M6275 1010 c4 -6 11 -8 16 -5 14 9 11 15 -7 15 -8 0 -12 -5 -9 -10z"/>
<path d="M9270 804 c0 -6 7 -19 16 -30 14 -18 14 -18 3 6 -14 31 -19 36 -19
24z"/>
<path d="M9596 282 c-8 -26 -1 -42 20 -42 17 0 17 8 0 39 -14 24 -14 24 -20 3z"/>
<path d="M9786 274 c-26 -23 -27 -26 -12 -43 9 -10 13 -21 9 -26 -5 -4 -3 -5
4 -1 13 7 36 71 31 85 -2 5 -16 -2 -32 -15z"/>
<path d="M9735 149 c-38 -39 -32 -45 8 -10 18 15 42 51 34 51 -1 0 -21 -19
-42 -41z"/>
<path d="M9457 34 c-21 -14 -37 -27 -35 -30 6 -5 80 18 96 29 6 5 12 13 12 18
0 17 -36 9 -73 -17z"/>
</g>
</svg>
